<svg xmlns="http://www.w3.org/2000/svg" viewBox="0 0 100 100">
  <defs>
    <linearGradient id="brainGradient" x1="0%" y1="0%" x2="100%" y2="100%">
      <stop offset="0%" style="stop-color:#007AFF;stop-opacity:1" />
      <stop offset="100%" style="stop-color:#0051D5;stop-opacity:1" />
    </linearGradient>
  </defs>

  <!-- Brain outline -->
  <path d="M50 15 C35 15 25 25 25 35 C20 35 15 40 15 45 C15 50 18 54 22 56 C22 65 25 72 30 77 C35 82 42 85 50 85 C58 85 65 82 70 77 C75 72 78 65 78 56 C82 54 85 50 85 45 C85 40 80 35 75 35 C75 25 65 15 50 15 Z"
        fill="url(#brainGradient)"
        stroke="none"/>

  <!-- Brain details/folds -->
  <path d="M35 40 Q40 35 45 40"
        fill="none"
        stroke="white"
        stroke-width="2"
        stroke-linecap="round"
        opacity="0.6"/>

  <path d="M55 40 Q60 35 65 40"
        fill="none"
        stroke="white"
        stroke-width="2"
        stroke-linecap="round"
        opacity="0.6"/>

  <path d="M40 50 Q45 45 50 50 Q55 55 60 50"
        fill="none"
        stroke="white"
        stroke-width="2"
        stroke-linecap="round"
        opacity="0.6"/>

  <path d="M35 60 Q40 55 45 60"
        fill="none"
        stroke="white"
        stroke-width="2"
        stroke-linecap="round"
        opacity="0.6"/>

  <path d="M55 60 Q60 55 65 60"
        fill="none"
        stroke="white"
        stroke-width="2"
        stroke-linecap="round"
        opacity="0.6"/>

  <!-- Highlight -->
  <ellipse cx="42" cy="30" rx="8" ry="12"
           fill="white"
           opacity="0.2"/>
</svg>
